<svg width="174" height="33" viewBox="0 0 174 33" fill="none" xmlns="http://www.w3.org/2000/svg">
<path d="M0.160156 32V2.68H9.32016C15.2802 2.68 19.5602 4.84 19.5602 10.92C19.5602 16.8 15.2802 19.6 9.32016 19.6H3.88016V32H0.160156ZM3.88016 16.6H8.80016C13.3602 16.6 15.8802 14.72 15.8802 10.92C15.8802 7.08 13.3602 5.72 8.80016 5.72H3.88016V16.6ZM16.2802 32L8.60016 18.6L11.4802 16.68L20.4402 32H16.2802ZM33.4439 32.56C27.6439 32.56 23.0439 28.32 23.0439 21.2C23.0439 14.12 27.8039 9.76 32.8039 9.76C38.3239 9.76 41.4439 13.72 41.4439 19.96C41.4439 20.72 41.4039 21.48 41.2839 22.04H26.6439C26.9239 26.64 29.7239 29.64 33.8839 29.64C35.9639 29.64 37.6839 28.96 39.2839 27.88L40.6039 30.32C38.6839 31.56 36.4039 32.56 33.4439 32.56ZM26.6039 19.4H38.2439C38.2439 15.04 36.2839 12.68 32.8439 12.68C29.8039 12.68 27.0839 15.12 26.6039 19.4ZM46.8323 32V10.28H50.4723V32H46.8323ZM48.6723 5.8C47.2323 5.8 46.2323 4.88 46.2323 3.36C46.2323 1.96 47.2323 1.04 48.6723 1.04C50.0723 1.04 51.1123 1.96 51.1123 3.36C51.1123 4.88 50.0723 5.8 48.6723 5.8ZM63.528 32.56C60.448 32.56 57.448 31.24 55.408 29.56L57.208 27.12C59.088 28.64 61.008 29.72 63.608 29.72C66.488 29.72 67.928 28.2 67.928 26.28C67.928 24.08 65.328 23.08 62.928 22.2C59.928 21.04 56.608 19.6 56.608 15.88C56.608 12.44 59.368 9.76 64.088 9.76C66.768 9.76 69.168 10.84 70.848 12.2L69.088 14.52C67.608 13.44 66.048 12.6 64.128 12.6C61.368 12.6 60.128 14.04 60.128 15.72C60.128 17.8 62.328 18.6 64.808 19.48C67.968 20.68 71.408 21.96 71.408 26.08C71.408 29.64 68.648 32.56 63.528 32.56ZM92.8642 32.56C87.4242 32.56 83.9042 28.44 83.9042 21.2C83.9042 14.12 88.3842 9.76 93.3442 9.76C95.8642 9.76 97.5442 10.68 99.4242 12.28L99.2642 8.52V0.199999H102.904V32H99.9042L99.5842 29.44H99.5042C97.7842 31.16 95.5042 32.56 92.8642 32.56ZM93.6642 29.48C95.7042 29.48 97.4642 28.48 99.2642 26.52V15.12C97.4242 13.44 95.7442 12.8 93.9442 12.8C90.4642 12.8 87.7042 16.2 87.7042 21.16C87.7042 26.36 89.8642 29.48 93.6642 29.48ZM118.749 32.56C113.389 32.56 108.669 28.36 108.669 21.2C108.669 13.92 113.389 9.76 118.749 9.76C124.069 9.76 128.789 13.92 128.789 21.2C128.789 28.36 124.069 32.56 118.749 32.56ZM118.749 29.52C122.509 29.52 125.029 26.16 125.029 21.2C125.029 16.16 122.509 12.8 118.749 12.8C114.949 12.8 112.429 16.16 112.429 21.2C112.429 26.16 114.949 29.52 118.749 29.52ZM143.832 32V2.68H152.512C158.472 2.68 162.592 4.72 162.592 9.88C162.592 12.76 161.072 15.32 158.312 16.24V16.4C161.832 17.08 164.272 19.44 164.272 23.44C164.272 29.16 159.712 32 153.192 32H143.832ZM147.552 15.16H151.872C156.912 15.16 158.952 13.32 158.952 10.32C158.952 6.88 156.632 5.6 152.072 5.6H147.552V15.16ZM147.552 29.08H152.672C157.672 29.08 160.672 27.28 160.672 23.32C160.672 19.68 157.792 18 152.672 18H147.552V29.08ZM170.121 32V2.68H173.841V32H170.121Z" fill="#231F20"/>
</svg>
